<?xml version="1.0" encoding="UTF-8"?>
<svg version="1.1" viewBox="0 0 500 500" xml:space="preserve" xmlns="http://www.w3.org/2000/svg"><path d="m300.5 25.54c6.079-0.04999 12.02 0.3038 15.67 1.082 16.19 3.457 30.71 11.21 42.63 22.76 9.609 9.312 15.94 19.04 19.67 30.23 2.815 8.445 3.547 13.83 3.271 24.07l-0.2428 9.034 2.822 0.9331c31.43 10.39 55.55 39.11 62.77 74.8 1.137 5.622 1.295 7.995 1.295 19.49 0 11.48-0.1598 13.87-1.295 19.49-1.124 5.562-4.543 16.66-6.801 22.07-0.7003 1.677-0.6508 1.807 1.319 3.536 4.831 4.242 12.21 14.24 15.82 21.44 2.246 4.473 4.985 12.3 6.333 18.1 1.636 7.033 2.022 21.25 0.7916 29.23-1.043 6.76-4.266 17.14-7.021 22.62-4.038 8.031-10.87 17.08-16.85 22.29l-2.984 2.604-0.3461 5.746c-1.632 27.18-20.51 52.04-45.77 60.29-4.883 1.593-12.95 3.048-17.24 3.107l-2.784 0.038-3.062 4.752c-3.731 5.789-10.98 13.38-17 17.81-8.206 6.031-18.15 10.35-27.86 12.1-6.015 1.086-17.9 1.104-23.68 0.0343-13.18-2.436-25.65-8.812-35.27-18.04-4.426-4.243-6.936-3.593-9.971-6.44-1.57-1.474-3.091-2.929-4.5-4.368-1.517 1.57-3.176 3.16-4.895 4.773-3.034 2.848-5.544 2.198-9.971 6.44-9.628 9.228-22.09 15.6-35.27 18.04-5.785 1.069-17.67 1.052-23.68-0.0343-9.721-1.755-19.66-6.074-27.86-12.1-6.021-4.424-13.27-12.01-17-17.81l-3.062-4.752-2.784-0.038c-4.288-0.0594-12.35-1.515-17.24-3.109-25.26-8.246-44.14-33.11-45.77-60.29l-0.3461-5.748-2.982-2.604c-5.981-5.218-12.82-14.26-16.85-22.29-2.757-5.482-5.978-15.86-7.021-22.62-1.231-7.972-0.8448-22.2 0.7916-29.23 1.348-5.792 4.087-13.62 6.333-18.1 3.62-7.207 11-17.2 15.82-21.44 1.97-1.73 2.019-1.861 1.319-3.538-2.258-5.407-5.676-16.5-6.801-22.06-1.135-5.619-1.295-8.001-1.295-19.49 0-11.49 0.1578-13.87 1.295-19.49 7.219-35.68 31.32-64.42 62.77-74.8l2.822-0.9331-0.2427-9.034c-0.2753-10.24 0.4566-15.62 3.271-24.07 3.728-11.19 10.06-20.92 19.67-30.22 11.93-11.55 26.44-19.31 42.63-22.76 7.281-1.555 23.77-1.419 32.14 0.2645 10.69 2.154 21.18 6.319 30.12 11.97 1.018 0.6424 2.276 1.277 3.649 2.311 1.573-1.282 3.023-1.997 4.166-2.72 8.938-5.645 19.42-9.813 30.12-11.97 4.18-0.842 10.4-1.296 16.47-1.346z" fill="#fff" stroke="#000" stroke-width="10"/><g transform="matrix(.9606 0 0 .9606 125.1 139.3)" stroke="#000" stroke-width="15.88"><g transform="matrix(1.004 0 0 1.004 -.5257 -.5261)"><g fill="#4285f4"><rect x="8.461" y="70.38" width="61.91" height="61.91"/><rect x="8.461" y="132.3" width="61.91" height="61.91"/><rect transform="rotate(90)" x="8.461" y="-70.38" width="61.91" height="61.91"/><rect x="70.38" y="70.38" width="61.91" height="61.91"/></g><rect x="132.3" y="70.38" width="61.91" height="61.91" fill="#ea4335"/><rect x="194.2" y="70.38" width="61.91" height="61.91" fill="#fbbc05"/><rect x="70.38" y="132.3" width="61.91" height="61.91" fill="#34a853"/><rect x="132.3" y="132.3" width="61.91" height="61.91" fill="#fbbc05"/><rect x="194.2" y="132.3" width="61.91" height="61.91" fill="#fbbc05"/><g fill="#ea4335"><rect transform="rotate(90)" x="8.461" y="-256.1" width="61.91" height="61.91"/><rect transform="rotate(90)" x="8.461" y="-194.2" width="61.91" height="61.91"/><rect transform="rotate(90)" x="8.461" y="-132.3" width="61.91" height="61.91"/></g><rect transform="rotate(90)" x="194.2" y="-70.38" width="61.91" height="61.91" fill="#34a853"/><rect transform="rotate(90)" x="194.2" y="-256.1" width="61.91" height="61.91" fill="#fbbc05"/><rect transform="rotate(90)" x="194.2" y="-194.2" width="61.91" height="61.91" fill="#34a853"/><rect transform="rotate(90)" x="194.2" y="-132.3" width="61.91" height="61.91" fill="#34a853"/></g><path d="m86.83 118.8v-32.45h76.23c6.954-0.0068 9.815 1.921 12 4.341s3.578 6.195 3.526 10.33c-0.0526 4.134-1.592 8.169-3.958 10.78-2.365 2.608-5.267 4.472-11.65 4.503h-69.87c-23.26 0.2102-40 19.75-40.9 40.33l-0.0162 0.3696v55.12h96.95v-61.7h-33.85v27.85h-29.25v-20.31c0.2384-4.332 2.449-7.753 7.362-7.801h69.72c14.85-0.0682 28.07-6.233 36.58-15.61 8.506-9.379 12.58-21.29 12.73-33.09 0.1503-11.8-3.664-23.94-12.25-33.45-8.586-9.508-22.06-15.52-37.16-15.5l-110.9 5.08e-4v111.9m96.95-48.32v-29.84h-33.85v29.9z" fill="#fff" stop-color="#000000"/></g><path d="m300.5 25.59c-6.079 0.04998-12.29 0.504-16.47 1.346-10.69 2.154-21.18 6.319-30.12 11.97-1.145 0.7225-2.593 1.437-4.166 2.72-1.373-1.034-2.631-1.67-3.649-2.311-8.938-5.645-19.42-9.813-30.12-11.97-8.362-1.684-24.86-1.82-32.14-0.2645-16.19 3.457-30.71 11.21-42.63 22.76-9.609 9.312-15.94 19.04-19.67 30.22-2.815 8.445-3.547 13.83-3.271 24.07l0.2427 9.034-2.822 0.9331c-31.43 10.39-55.55 39.11-62.77 74.8-1.137 5.622-1.295 7.997-1.295 19.49 0 11.48 0.1598 13.87 1.295 19.49 1.124 5.562 4.543 16.65 6.801 22.06 0.7004 1.677 0.6509 1.809-1.319 3.538-4.831 4.242-12.21 14.24-15.82 21.44-2.246 4.473-4.985 12.3-6.333 18.1-1.636 7.033-2.022 21.25-0.7916 29.23 1.043 6.76 4.266 17.14 7.021 22.62 4.038 8.031 10.87 17.08 16.85 22.29l2.982 2.604 0.346 5.748c1.632 27.18 20.51 52.04 45.77 60.29 4.883 1.594 12.95 3.05 17.24 3.109l2.784 0.038 3.062 4.752c3.73 5.789 10.98 13.38 17 17.81 8.206 6.031 18.15 10.35 27.86 12.1 6.015 1.086 17.9 1.104 23.68 0.0344 13.18-2.436 25.65-8.811 35.27-18.04 4.425-4.243 6.935-3.593 9.971-6.44 1.719-1.613 3.377-3.206 4.895-4.775 1.408 1.439 2.929 2.894 4.5 4.368 3.034 2.848 5.544 2.199 9.971 6.442 9.628 9.228 22.09 15.6 35.27 18.04 5.785 1.069 17.67 1.052 23.68-0.0344 9.721-1.755 19.66-6.074 27.86-12.1 6.021-4.424 13.27-12.02 17-17.81l3.062-4.752 2.784-0.038c4.288-0.0592 12.35-1.513 17.24-3.107 25.26-8.246 44.14-33.11 45.77-60.29l0.346-5.746 2.982-2.604c5.981-5.219 12.82-14.26 16.85-22.29 2.757-5.482 5.978-15.86 7.021-22.62 1.231-7.972 0.8448-22.2-0.7916-29.23-1.348-5.792-4.087-13.62-6.333-18.1-3.62-7.207-11-17.21-15.82-21.44-1.97-1.73-2.019-1.859-1.319-3.536 2.258-5.407 5.676-16.5 6.801-22.07 1.135-5.619 1.295-8.001 1.295-19.49 0-11.49-0.158-13.86-1.295-19.49-7.219-35.68-31.32-64.42-62.77-74.8l-2.822-0.9331 0.2427-9.034c0.2753-10.24-0.4565-15.62-3.271-24.07-3.728-11.19-10.06-20.92-19.67-30.23-11.93-11.55-26.44-19.31-42.63-22.76-3.641-0.7777-9.581-1.132-15.67-1.082zm0.9112 18.57c7.168-5.52e-4 9.106 0.1993 13.68 1.411 6.802 1.802 12.69 4.258 18.33 7.65 4.673 2.809 11.69 8.213 11.69 9.004 0 0.2528-2.318 0.4607-5.151 0.4619-12.74 0.0048-25.06 3.59-32.99 9.6-5.871 4.451-10.86 12.41-11.25 17.95-0.5734 8.107 9.414 12.89 15.34 7.342 0.7113-0.6664 2.191-2.924 3.29-5.014 2.195-4.176 3.896-5.732 8.623-7.897 5.523-2.528 11.11-3.242 22.42-2.859 5.511 0.1865 11.02 0.5316 12.24 0.7663 2.155 0.4129 2.267 0.5466 3.46 4.115 4.795 14.34 1.693 32.51-8.101 47.45-2.535 3.868-2.875 4.729-2.875 7.293 0 3.364 1.419 5.915 4.411 7.931 2.447 1.649 6.798 1.726 9.359 0.1648 2.438-1.487 6.104-6.597 9.563-13.33l2.87-5.585 3.678 1.384c21.95 8.259 38.48 26.07 45.99 49.53 2.988 9.34 3.95 15.78 3.948 26.44 0 11.77-1.886 21.69-6.023 31.79-0.3182 0.7757-0.9748 0.6565-5.208-0.9405-2.665-1.005-6.996-2.263-9.628-2.797l-4.782-0.9711-1.207-5.352c-0.7607-3.373-2.17-7.294-3.817-10.61-2.212-4.459-3.426-6.079-7.929-10.57-4.154-4.151-6.23-5.756-9.489-7.352-7.831-3.828-16.14-4.845-20.3-2.486-5.114 2.897-6.28 9.999-2.338 14.23 1.836 1.972 3.652 2.726 8.032 3.334 9.721 1.348 16.44 8.816 18.09 20.11 1.167 8.005-1.514 16.86-6.717 22.19-3.305 3.385-6.954 5.139-11.79 5.67-2.322 0.2548-4.584 0.8903-5.766 1.621-2.22 1.372-4.252 5.08-4.252 7.757 0 4.328 3.683 8.645 7.909 9.27 2.685 0.3974 8.624-0.4223 12.57-1.735 9.915-3.298 19.41-12.63 23.48-23.09 0.8208-2.109 1.619-3.961 1.773-4.116 0.4111-0.4111 7.445 1.557 11.42 3.193 8.215 3.387 17.85 11.58 23.23 19.77 9.095 13.83 11.89 31.7 7.556 48.3-1.307 4.999-5.062 13.32-7.814 17.33-2.092 3.04-1.674 3.518-4.411-5.049-6.322-19.78-18.25-31.48-32.12-31.48-6.596 0-9.711 2.659-10.07 8.605-0.1739 2.826-7.8e-4 3.673 1.107 5.299 1.807 2.659 4.66 4.463 7.078 4.478 8.403 0.0513 16.06 12.47 19.32 31.31 1.186 6.866 1.207 19.64 0.0398 24.77-1.245 5.477-3.679 11.58-6.52 16.37-3.029 5.1-9.646 12.01-14.79 15.45-4.103 2.745-10.97 5.725-14.89 6.455-1.935 0.3611-2.116 0.2968-1.826-0.6468 0.8385-2.729 2.026-11.33 2.026-14.65 0-3.406 0.158-3.91 1.848-5.911 4.803-5.688 7.966-11.71 9.915-18.89 1.71-6.302 1.71-17.08 0-23.38-2.851-10.5-9.878-21.05-15.05-22.59-5.892-1.765-11.86 2.716-11.86 8.899 0 3.043 0.5152 4.19 3.641 8.121 3.914 4.922 5.934 10.8 5.945 17.29 0.0139 7.77-2.546 13.92-8.154 19.61-10.82 10.96-27.99 11.15-39.34 0.4311-4.716-4.452-8.646-5.215-13.05-2.529-2.681 1.636-4.026 4.202-4.029 7.686 0 3.702 0.8032 5.257 4.538 8.774 5.79 5.451 12.86 9.331 20.79 11.42 5.462 1.434 15.99 1.59 21.15 0.3134 1.835-0.4539 3.449-0.7123 3.587-0.5742 0.5187 0.5187-2.324 9.014-4.396 13.14-7.504 14.94-19.3 24.89-34.25 28.9-6.146 1.646-17.08 1.664-23.15 0.038-8.514-2.277-16.23-6.669-23.33-13.27-5.947-5.536-9.804-7.955-15.73-9.86-0.9042-0.2914-0.9758-1.806-0.998-21.06-0.0252-21.75-0.1967-23.49-2.567-26.16-0.565-0.6366-2.12-1.647-3.457-2.245-3.01-1.347-6.068-1.041-8.643 0.8352-1.083 0.5807-2.144 1.313-2.589 1.815-2.37 2.67-2.541 4.414-2.567 26.17-0.0227 19.26-0.094 20.78-0.998 21.06-5.921 1.909-9.776 4.328-15.73 9.86-7.098 6.607-14.81 11-23.33 13.27-6.08 1.626-17.01 1.606-23.15-0.0399-14.95-4.006-26.75-13.97-34.25-28.9-2.072-4.126-4.915-12.61-4.396-13.13 0.1381-0.138 1.752 0.1203 3.587 0.5742 5.16 1.276 15.68 1.12 21.15-0.3152 7.929-2.082 15-5.966 20.79-11.42 3.735-3.516 4.538-5.072 4.538-8.774-2e-3 -3.485-1.347-6.049-4.029-7.685-4.403-2.685-8.334-1.926-13.05 2.528-11.34 10.71-28.52 10.53-39.34-0.4311-5.608-5.684-8.167-11.84-8.154-19.61 0.0109-6.492 2.031-12.37 5.945-17.29 3.126-3.932 3.641-5.078 3.641-8.121 0-6.183-5.974-10.66-11.86-8.897-5.18 1.552-12.21 12.1-15.05 22.59-1.71 6.302-1.71 17.08 0 23.38 1.948 7.174 5.11 13.2 9.915 18.88 1.69 2.002 1.848 2.507 1.848 5.913 0 3.337 1.187 11.93 2.026 14.65 0.29 0.9433 0.109 1.008-1.826 0.6468-3.91-0.7296-10.79-3.708-14.89-6.453-5.147-3.442-11.76-10.36-14.79-15.45-2.841-4.782-5.275-10.89-6.52-16.37-1.167-5.137-1.146-17.91 0.03986-24.77 3.257-18.85 10.92-31.27 19.32-31.31 2.418-0.0147 5.269-1.821 7.076-4.48 1.105-1.626 1.283-2.472 1.108-5.299-0.3658-5.945-3.48-8.605-10.07-8.605-13.87 0-25.79 11.69-32.12 31.48-2.737 8.568-2.32 8.089-4.411 5.049-2.752-4-6.506-12.32-7.814-17.32-4.337-16.58-1.54-34.47 7.556-48.3 5.382-8.183 15.01-16.37 23.23-19.77 3.969-1.636 11-3.603 11.42-3.192 0.1544 0.1544 0.9526 2.006 1.773 4.116 4.067 10.45 13.56 19.79 23.48 23.09 3.948 1.313 9.887 2.133 12.57 1.735 4.227-0.6254 7.909-4.942 7.909-9.27 0-2.677-2.032-6.383-4.252-7.755-1.183-0.7311-3.445-1.368-5.766-1.623-4.832-0.5304-8.481-2.286-11.79-5.67-5.203-5.328-7.884-14.18-6.717-22.19 1.646-11.3 8.362-18.76 18.09-20.11 4.381-0.6071 6.197-1.36 8.032-3.332 3.941-4.233 2.775-11.33-2.338-14.23-4.166-2.36-12.48-1.344-20.3 2.484-3.263 1.594-5.338 3.202-9.489 7.353-4.503 4.499-5.717 6.118-7.929 10.57-1.647 3.32-3.056 7.242-3.817 10.62l-1.207 5.35-4.782 0.9711c-2.63 0.5341-6.962 1.794-9.628 2.799-4.233 1.596-4.89 1.714-5.208 0.9387-4.138-10.08-6.021-20.02-6.023-31.79-3e-3 -10.67 0.9591-17.1 3.948-26.44 7.508-23.46 24.05-41.27 45.99-49.53l3.678-1.384 2.87 5.584c3.46 6.735 7.124 11.84 9.563 13.33 2.561 1.561 6.912 1.486 9.359-0.1631 2.991-2.016 4.409-4.567 4.409-7.931 0-2.565-0.3384-3.425-2.873-7.293-9.795-14.94-12.89-33.12-8.101-47.46 1.193-3.567 1.306-3.701 3.46-4.115 1.224-0.2348 6.735-0.5798 12.24-0.7663 11.31-0.3827 16.9 0.3301 22.42 2.859 4.728 2.165 6.429 3.723 8.623 7.899 1.099 2.091 2.579 4.346 3.29 5.012 5.92 5.547 15.92 0.7645 15.34-7.342-0.392-5.539-5.382-13.5-11.25-17.95-7.932-6.013-20.25-9.6-32.99-9.6-2.832-0.0012-5.151-0.2093-5.151-0.4619 0-0.7906 7.018-6.195 11.69-9.004 5.644-3.392 11.53-5.846 18.33-7.648 4.575-1.212 6.513-1.412 13.68-1.411 14.58 0.0012 25.87 3.21 37.43 10.65l4.029 2.591 0.0109 21.44c6e-3 13 0.2363 22.25 0.5852 23.5 1.848 6.653 9.312 8.806 14.17 5.434 2.078-1.145 3.777-3.115 4.535-5.841 0.3488-1.256 0.5788-10.5 0.5852-23.5l0.0109-21.44 4.029-2.591c11.57-7.435 22.85-10.65 37.43-10.65z" stroke-width=".5567"/></svg>
