<?xml version="1.0" encoding="UTF-8"?>
<svg version="1.1" viewBox="0 0 500 500" xml:space="preserve" xmlns="http://www.w3.org/2000/svg"><g transform="matrix(.9603 0 0 .9603 123 122.9)" stroke="#000" stroke-width="15.88"><g transform="matrix(1.004 0 0 1.004 -.5257 -.5261)"><g fill="#4285f4"><rect x="8.461" y="70.38" width="61.91" height="61.91"/><rect x="8.461" y="132.3" width="61.91" height="61.91"/><rect transform="rotate(90)" x="8.461" y="-70.38" width="61.91" height="61.91"/><rect x="70.38" y="70.38" width="61.91" height="61.91"/></g><rect x="132.3" y="70.38" width="61.91" height="61.91" fill="#ea4335"/><rect x="194.2" y="70.38" width="61.91" height="61.91" fill="#fbbc05"/><rect x="70.38" y="132.3" width="61.91" height="61.91" fill="#34a853"/><rect x="132.3" y="132.3" width="61.91" height="61.91" fill="#fbbc05"/><rect x="194.2" y="132.3" width="61.91" height="61.91" fill="#fbbc05"/><g fill="#ea4335"><rect transform="rotate(90)" x="8.461" y="-256.1" width="61.91" height="61.91"/><rect transform="rotate(90)" x="8.461" y="-194.2" width="61.91" height="61.91"/><rect transform="rotate(90)" x="8.461" y="-132.3" width="61.91" height="61.91"/></g><rect transform="rotate(90)" x="194.2" y="-70.38" width="61.91" height="61.91" fill="#34a853"/><rect transform="rotate(90)" x="194.2" y="-256.1" width="61.91" height="61.91" fill="#fbbc05"/><rect transform="rotate(90)" x="194.2" y="-194.2" width="61.91" height="61.91" fill="#34a853"/><rect transform="rotate(90)" x="194.2" y="-132.3" width="61.91" height="61.91" fill="#34a853"/></g><path d="m86.83 118.8v-32.45h76.23c6.954-0.0068 9.815 1.921 12 4.341s3.578 6.195 3.526 10.33c-0.0526 4.134-1.592 8.169-3.958 10.78-2.365 2.608-5.267 4.472-11.65 4.503h-69.87c-23.26 0.2102-40 19.75-40.9 40.33l-0.0162 0.3696v55.12h96.95v-61.7h-33.85v27.85h-29.25v-20.31c0.2384-4.332 2.449-7.753 7.362-7.801h69.72c14.85-0.0682 28.07-6.233 36.58-15.61 8.506-9.379 12.58-21.29 12.73-33.09 0.1503-11.8-3.664-23.94-12.25-33.45-8.586-9.508-22.06-15.52-37.16-15.5l-110.9 5.08e-4v111.9m96.95-48.32v-29.84h-33.85v29.9z" fill="#fff" stop-color="#000000"/></g><path d="m258.1 74.1c-31.31-0.6313-48.04 0.8354-67.81 5.94-27.18 7.019-52.28 20.31-77.26 40.94-8.387 6.924-30.5 29.16-38.13 38.34-19.58 23.56-36.75 49.36-55.35 83.14l-4.173 7.584 5.269 9.655c22.62 41.44 50.18 79.02 77 105 37.93 36.76 76.51 55.79 122 60.15 20.07 1.927 58.46 0.9821 74.78-1.841 48.45-8.38 91.09-35.75 132-84.72 17.35-20.78 35.83-48.27 52.13-77.56l6.102-10.97-6.709-11.86c-22.26-39.33-41.58-66.54-65.55-92.33-30.21-32.51-63.81-54.37-99.45-64.7-16.53-4.793-28.43-6.271-54.79-6.803zm-1.512 32.17c21.53 0.4342 31.25 1.641 44.76 5.556 29.11 8.44 56.55 26.29 81.23 52.85 19.58 21.06 35.36 43.29 53.54 75.42l5.482 9.683-4.985 8.958c-13.31 23.92-28.41 46.38-42.58 63.35-33.4 40-68.23 62.36-107.8 69.2-13.33 2.306-44.69 3.078-61.08 1.504-37.13-3.566-68.64-19.11-99.63-49.13-21.91-21.23-44.42-51.93-62.89-85.78l-4.305-7.886 3.411-6.195c15.19-27.59 29.21-48.66 45.21-67.91 6.227-7.494 24.29-25.66 31.14-31.31 20.41-16.85 40.91-27.71 63.11-33.45 16.15-4.17 29.82-5.366 55.39-4.851z"/><path d="m256.6 106.3c-25.58-0.5156-39.24 0.6811-55.39 4.851-22.2 5.733-42.7 16.6-63.11 33.45-6.851 5.656-24.92 23.82-31.14 31.31-15.99 19.25-30.02 40.32-45.21 67.91l-3.411 6.195 4.305 7.886c18.48 33.85 40.99 64.55 62.89 85.78 30.99 30.03 62.5 45.57 99.63 49.13 16.39 1.574 47.75 0.8027 61.08-1.504 39.57-6.845 74.41-29.21 107.8-69.2 14.17-16.97 29.27-39.43 42.58-63.35l4.985-8.958-5.482-9.682c-18.19-32.13-33.97-54.35-53.54-75.42-24.68-26.55-52.12-44.41-81.23-52.85-13.5-3.915-23.22-5.122-44.76-5.556zm-6.626 27.18a116.4 116.4 0 0 1 116.4 116.4 116.4 116.4 0 0 1-116.4 116.4 116.4 116.4 0 0 1-116.4-116.4 116.4 116.4 0 0 1 116.4-116.4z" fill="#fff" stroke="#000" stroke-width="10"/></svg>
