<?xml version="1.0" encoding="UTF-8"?>
<svg version="1.1" viewBox="0 0 500 500" xml:space="preserve" xmlns="http://www.w3.org/2000/svg"><path d="m171.1 441.4c-3.053-1.072-6.472-4.768-7.357-7.952-0.369-1.329-0.639-12.07-0.641-25.5l-4e-3 -23.21h25.05l-0.2016 24.16-0.2015 24.16-1.751 2.979c-1.3 2.211-2.61 3.406-5.086 4.641-3.732 1.86-6.046 2.027-9.805 0.707zm74.25-0.2547c-3.099-1.43-5.048-3.456-6.371-6.62-0.8337-1.995-0.9907-6.128-0.9907-26.07v-23.71h24.32v24.03c0 22.36-0.0846 24.2-1.218 26.4-3.179 6.199-9.802 8.708-15.74 5.965zm73.98-0.5003c-2.612-1.375-3.842-2.526-4.961-4.64-1.481-2.799-1.487-2.923-1.487-27.04v-24.23h24.38l-0.377 49.18-1.929 2.744c-2.388 3.398-5.027 4.985-9.051 5.448-2.595 0.2981-3.671 0.0572-6.576-1.472zm-252.8-104c-2.853-0.8229-6.942-5.052-7.771-8.037-1.026-3.695-0.8421-5.397 0.9769-9.047 1.234-2.476 2.429-3.787 4.641-5.086l2.979-1.751 48.33-0.4032v25.05l-23.53-0.0577c-12.94-0.0317-24.47-0.3309-25.63-0.6648zm318-11.77v-12.55l48.33 0.4032 2.993 1.759c4.087 2.403 6.648 7.423 6.051 11.86-0.5136 3.817-3.15 7.624-6.483 9.365-2.445 1.276-3.651 1.345-26.73 1.519l-24.16 0.182zm-319.1-63.4c-4.348-2.261-7.32-6.783-7.347-11.18-0.01914-3.094 2.361-7.5 5.326-9.86l2.459-1.957 49.81-0.363v24.36l-24.16-4e-3c-20.64-3e-3 -24.45-0.1495-26.08-1.003zm319.1-11.16v-12.16h23.71c19.94 0 24.08 0.157 26.07 0.9907 10.25 4.282 10.25 18.06 0 22.34-1.995 0.8337-6.128 0.9907-26.07 0.9907h-23.71zm-316.2-62.69c-6.15-1.202-10.76-7.379-9.946-13.33 0.5122-3.738 2.768-7.223 5.955-9.205l2.443-1.519 48.96-0.377v25.02l-22.56-0.0736c-12.41-0.0405-23.59-0.2754-24.86-0.522zm316.2-11.87v-12.56l49.07 0.377 2.594 1.717c3.236 2.142 5.194 5.245 5.717 9.062 0.5966 4.353-1.995 9.399-6.054 11.79l-2.993 1.759-48.33 0.4032zm-221.3-84.45 0.1885-24.59 1.929-2.744c2.342-3.332 4.898-4.909 8.829-5.448 4.375-0.5998 9.414 1.983 11.81 6.051l1.759 2.993 0.4032 48.33h-25.1zm74.76 0.8855c0-25.45 0.1095-26.41 3.391-29.98 1.893-2.059 6.019-3.894 8.796-3.911 3.094-0.01917 7.5 2.361 9.86 5.326l1.957 2.459 0.1815 24.9 0.1815 24.9h-24.36zm74.37-0.4595 0.2076-24.16 1.759-2.993c2.391-4.068 7.43-6.65 11.81-6.051 3.93 0.5387 6.486 2.115 8.829 5.448l1.929 2.744 0.377 49.18h-25.11z" stroke-width="1.311"/><g transform="matrix(.9606 0 0 .9606 123 123.1)" stroke="#000" stroke-width="15.88"><g transform="matrix(1.004 0 0 1.004 -.5257 -.5261)"><g fill="#4285f4"><rect x="8.461" y="70.38" width="61.91" height="61.91"/><rect x="8.461" y="132.3" width="61.91" height="61.91"/><rect transform="rotate(90)" x="8.461" y="-70.38" width="61.91" height="61.91"/><rect x="70.38" y="70.38" width="61.91" height="61.91"/></g><rect x="132.3" y="70.38" width="61.91" height="61.91" fill="#ea4335"/><rect x="194.2" y="70.38" width="61.91" height="61.91" fill="#fbbc05"/><rect x="70.38" y="132.3" width="61.91" height="61.91" fill="#34a853"/><rect x="132.3" y="132.3" width="61.91" height="61.91" fill="#fbbc05"/><rect x="194.2" y="132.3" width="61.91" height="61.91" fill="#fbbc05"/><g fill="#ea4335"><rect transform="rotate(90)" x="8.461" y="-256.1" width="61.91" height="61.91"/><rect transform="rotate(90)" x="8.461" y="-194.2" width="61.91" height="61.91"/><rect transform="rotate(90)" x="8.461" y="-132.3" width="61.91" height="61.91"/></g><rect transform="rotate(90)" x="194.2" y="-70.38" width="61.91" height="61.91" fill="#34a853"/><rect transform="rotate(90)" x="194.2" y="-256.1" width="61.91" height="61.91" fill="#fbbc05"/><rect transform="rotate(90)" x="194.2" y="-194.2" width="61.91" height="61.91" fill="#34a853"/><rect transform="rotate(90)" x="194.2" y="-132.3" width="61.91" height="61.91" fill="#34a853"/></g><path d="m86.83 118.8v-32.45h76.23c6.954-0.0068 9.815 1.921 12 4.341s3.578 6.195 3.526 10.33c-0.0526 4.134-1.592 8.169-3.958 10.78-2.365 2.608-5.267 4.472-11.65 4.503h-69.87c-23.26 0.2102-40 19.75-40.9 40.33l-0.0162 0.3696v55.12h96.95v-61.7h-33.85v27.85h-29.25v-20.31c0.2384-4.332 2.449-7.753 7.362-7.801h69.72c14.85-0.0682 28.07-6.233 36.58-15.61 8.506-9.379 12.58-21.29 12.73-33.09 0.1503-11.8-3.664-23.94-12.25-33.45-8.586-9.508-22.06-15.52-37.16-15.5l-110.9 5.08e-4v111.9m96.95-48.32v-29.84h-33.85v29.9z" fill="#fff" stop-color="#000000"/></g></svg>
