<?xml version="1.0" encoding="UTF-8"?>
<svg version="1.1" viewBox="0 0 500 500" xml:space="preserve" xmlns="http://www.w3.org/2000/svg"><g fill="#fff" stroke="#000" stroke-width="15"><rect x="220.9" y="100.3" width="58.24" height="27.6" ry="0"/><rect transform="rotate(90)" x="356.8" y="-324.2" width="88.8" height="30.59" ry="0"/><rect x="279.7" y="387.4" width="58.24" height="27.6" ry="0"/><rect transform="rotate(90)" x="356.8" y="-206.4" width="88.8" height="30.59" ry="0"/><path d="m191.1 436.1a40.41 40.41 0 0 0-40.41 40.41 40.41 40.41 0 0 0 1.582 11.19h77.66a40.41 40.41 0 0 0 1.582-11.19 40.41 40.41 0 0 0-40.41-40.41z"/><path d="m308.9 436.7a40.41 40.41 0 0 0-40.41 40.41 40.41 40.41 0 0 0 1.582 11.19h77.66a40.41 40.41 0 0 0 1.582-11.19 40.41 40.41 0 0 0-40.41-40.41z"/><rect x="154.6" y="12.01" width="190.7" height="88.36" ry="28.69"/><g transform="translate(2.333 8.537)"><rect transform="rotate(100)" x="181" y="-123.2" width="181.2" height="30.59" ry="0" stroke-width="15"/><circle cx="82.37" cy="186.3" r="46.41" stroke-width="15"/><path d="m43.39 362c-18.07-4.2e-4 -32.72 14.65-32.72 32.72-5e-4 11.08 4.81 30 14.9 27.44 9.887-2.511-7.213-23.39 0-30.6 8.132-8.132 26.37-8.132 34.5 0 7.38 7.38-10.09 28.64 0 31.31 10.44 2.765 16.03-16.59 16.03-28.15-4e-4 -18.07-14.65-32.72-32.72-32.72z" stroke-width="10"/><rect transform="rotate(9.997)" x="80.44" y="234.3" width="58.24" height="93.33" ry="0" stroke-width="15"/><rect transform="rotate(90)" x="142.4" y="-129.2" width="87.47" height="30.59" ry="0" stroke-width="15"/></g><g transform="matrix(-1 0 0 1 497.7 8.537)"><rect transform="rotate(100)" x="181" y="-123.2" width="181.2" height="30.59" ry="0" stroke-width="15"/><circle cx="82.37" cy="186.3" r="46.41" stroke-width="15"/><path d="m43.39 362c-18.07-4.2e-4 -32.72 14.65-32.72 32.72-5e-4 11.08 4.81 30 14.9 27.44 9.887-2.511-7.213-23.39 0-30.6 8.132-8.132 26.37-8.132 34.5 0 7.38 7.38-10.09 28.64 0 31.31 10.44 2.765 16.03-16.59 16.03-28.15-4e-4 -18.07-14.65-32.72-32.72-32.72z" stroke-width="10"/><rect transform="rotate(9.997)" x="80.44" y="234.3" width="58.24" height="93.33" ry="0" stroke-width="15"/><rect transform="rotate(90)" x="142.4" y="-129.2" width="87.47" height="30.59" ry="0" stroke-width="15"/></g><g transform="translate(.09466 1.895)"><circle cx="206" cy="54.3" r="22.78"/><circle cx="293.8" cy="54.3" r="22.78"/></g></g><g transform="matrix(.9606 0 0 .9606 122.9 122.9)" stroke="#000" stroke-width="15.88"><g transform="matrix(1.004 0 0 1.004 -.5257 -.5261)"><g fill="#4285f4"><rect x="8.461" y="70.38" width="61.91" height="61.91"/><rect x="8.461" y="132.3" width="61.91" height="61.91"/><rect transform="rotate(90)" x="8.461" y="-70.38" width="61.91" height="61.91"/><rect x="70.38" y="70.38" width="61.91" height="61.91"/></g><rect x="132.3" y="70.38" width="61.91" height="61.91" fill="#ea4335"/><rect x="194.2" y="70.38" width="61.91" height="61.91" fill="#fbbc05"/><rect x="70.38" y="132.3" width="61.91" height="61.91" fill="#34a853"/><rect x="132.3" y="132.3" width="61.91" height="61.91" fill="#fbbc05"/><rect x="194.2" y="132.3" width="61.91" height="61.91" fill="#fbbc05"/><g fill="#ea4335"><rect transform="rotate(90)" x="8.461" y="-256.1" width="61.91" height="61.91"/><rect transform="rotate(90)" x="8.461" y="-194.2" width="61.91" height="61.91"/><rect transform="rotate(90)" x="8.461" y="-132.3" width="61.91" height="61.91"/></g><rect transform="rotate(90)" x="194.2" y="-70.38" width="61.91" height="61.91" fill="#34a853"/><rect transform="rotate(90)" x="194.2" y="-256.1" width="61.91" height="61.91" fill="#fbbc05"/><rect transform="rotate(90)" x="194.2" y="-194.2" width="61.91" height="61.91" fill="#34a853"/><rect transform="rotate(90)" x="194.2" y="-132.3" width="61.91" height="61.91" fill="#34a853"/></g><path d="m86.83 118.8v-32.45h76.23c6.954-0.0068 9.815 1.921 12 4.341s3.578 6.195 3.526 10.33c-0.0526 4.134-1.592 8.169-3.958 10.78-2.365 2.608-5.267 4.472-11.65 4.503h-69.87c-23.26 0.2102-40 19.75-40.9 40.33l-0.0162 0.3696v55.12h96.95v-61.7h-33.85v27.85h-29.25v-20.31c0.2384-4.332 2.449-7.753 7.362-7.801h69.72c14.85-0.0682 28.07-6.233 36.58-15.61 8.506-9.379 12.58-21.29 12.73-33.09 0.1503-11.8-3.664-23.94-12.25-33.45-8.586-9.508-22.06-15.52-37.16-15.5l-110.9 5.08e-4v111.9m96.95-48.32v-29.84h-33.85v29.9z" fill="#fff" stop-color="#000000"/></g><rect x="162" y="387.4" width="58.24" height="27.6" ry="0" fill="#fff" stroke="#000" stroke-width="15"/></svg>
