<?xml version="1.0" encoding="UTF-8"?>
<svg width="1e3" height="1e3" version="1.1" viewBox="0 0 264.6 264.6" xml:space="preserve" xmlns="http://www.w3.org/2000/svg"><g transform="matrix(1.004 0 0 1.004 -.5257 -.5261)" stroke="#000" stroke-width="15.88"><g fill="#4285f4"><rect x="8.461" y="70.38" width="61.91" height="61.91"/><rect x="8.461" y="132.3" width="61.91" height="61.91"/><rect transform="rotate(90)" x="8.461" y="-70.38" width="61.91" height="61.91"/><rect x="70.38" y="70.38" width="61.91" height="61.91"/></g><rect x="132.3" y="70.38" width="61.91" height="61.91" fill="#ea4335"/><rect x="194.2" y="70.38" width="61.91" height="61.91" fill="#fbbc05"/><rect x="70.38" y="132.3" width="61.91" height="61.91" fill="#34a853"/><rect x="132.3" y="132.3" width="61.91" height="61.91" fill="#fbbc05"/><rect x="194.2" y="132.3" width="61.91" height="61.91" fill="#fbbc05"/><g fill="#ea4335"><rect transform="rotate(90)" x="8.461" y="-256.1" width="61.91" height="61.91"/><rect transform="rotate(90)" x="8.461" y="-194.2" width="61.91" height="61.91"/><rect transform="rotate(90)" x="8.461" y="-132.3" width="61.91" height="61.91"/></g><rect transform="rotate(90)" x="194.2" y="-70.38" width="61.91" height="61.91" fill="#34a853"/><rect transform="rotate(90)" x="194.2" y="-256.1" width="61.91" height="61.91" fill="#fbbc05"/><rect transform="rotate(90)" x="194.2" y="-194.2" width="61.91" height="61.91" fill="#34a853"/><rect transform="rotate(90)" x="194.2" y="-132.3" width="61.91" height="61.91" fill="#34a853"/></g><path d="m86.83 118.8v-32.45h76.23c6.954-0.0068 9.815 1.921 12 4.341 2.185 2.42 3.578 6.195 3.526 10.33-0.0526 4.134-1.592 8.169-3.958 10.78-2.365 2.608-5.267 4.472-11.65 4.503h-69.87c-23.26 0.2102-40 19.75-40.9 40.33l-0.0162 0.3696v55.12h96.95v-61.7h-33.85v27.85h-29.25v-20.31c0.2384-4.332 2.449-7.753 7.362-7.801h69.72c14.85-0.0682 28.07-6.233 36.58-15.61 8.506-9.379 12.58-21.29 12.73-33.09 0.1503-11.8-3.664-23.94-12.25-33.45-8.586-9.508-22.06-15.52-37.16-15.5l-110.9 5.08e-4v111.9m96.95-48.32v-29.84h-33.85v29.9z" fill="#fff" stop-color="#000000" stroke="#000" stroke-width="15.88"/></svg>
